<?xml version="1.0" encoding="utf-8"?>
<!-- Generator: Adobe Illustrator 19.2.1, SVG Export Plug-In . SVG Version: 6.00 Build 0)  -->
<svg version="1.1" id="Layer_1" xmlns="http://www.w3.org/2000/svg" xmlns:xlink="http://www.w3.org/1999/xlink" x="0px" y="0px"
	 viewBox="0 0 300 147.1" style="enable-background:new 0 0 300 147.1;" xml:space="preserve">
<style type="text/css">
	.st0{fill:#FFCE00;}
</style>
<g>
	<path class="st0" d="M63.2,62.2c-0.7,0-1.2,0.1-1.2,0.1v3.8h0.9c1.4,0,2.3-0.9,2.3-2C65.1,63,64.4,62.2,63.2,62.2z"/>
	<path class="st0" d="M74.9,8.3c-35,0-63.3,28.3-63.3,63.3c0,35,28.3,63.3,63.3,63.3c35,0,63.3-28.3,63.3-63.3
		C138.2,36.6,109.9,8.3,74.9,8.3z M28.8,45.1H47V26.3c8-5.2,17.7-8.2,28.1-8.2c23.4,0,43.2,15,50.4,36H24.4
		C25.6,51.1,27,47.7,28.8,45.1z M111.3,60.1h3.2l1.3,2.8c0.4,0.9,0.6,2.2,0.9,2.2h0c0.3,0,0.6-1.3,0.9-2.2l1.2-2.8h3.1l-4,7.3v4.7
		h-3v-4.6L111.3,60.1z M112,70.1v2h-7v-12h2v10H112z M102,65.1v2h-4v3h5v2h-8v-12h8v2h-5v3H102z M92,79.1v2h-4v3h5v3h-8v-13h8v3h-5
		v2H92z M57,77.1v-3h10v3h-4v10h-2v-10H57z M53.4,84.5c0.8,0,1.8-0.2,2.3-0.4l0.4,2.2c-0.5,0.3-1.7,0.5-3.2,0.5
		c-4.2,0-6.4-2.6-6.4-6.1c0-4.2,3-6.5,6.7-6.5c1.4,0,2.5,0.3,3,0.5l-0.6,2.2c-0.6-0.2-1.3-0.5-2.3-0.5c-2.2,0-3.9,1.3-3.9,4.1
		C49.5,83,50.9,84.5,53.4,84.5z M35,65.1v2h-4v3h5v2h-8v-12h8v2h-5v3H35z M38.5,74.1h3.6l3.8,13h-3l-0.9-4h-3.5l-0.9,4h-2.9
		L38.5,74.1z M44.2,72.1l-1.1-2c-0.5-0.9-0.7-1-1.1-2h0c-0.3,1-0.6,1.1-0.9,2l-1,2h-3.2l3.6-6.1L37,60.1h3.2l1.1,2.1
		c0.4,0.7,0.6,1.9,0.9,1.9h0c0.3,0,0.5-1.2,0.8-1.9l1-2.1h3.2l-3.5,5.9l3.6,6.1H44.2z M54,62.1v10h-3v-10h-3v-2h10v2H54z M65.5,72.1
		c-0.2,0-0.5-0.9-0.9-2.4c-0.3-1.5-0.9-1.6-2-1.6H62v4h-3V60.4c1-0.1,2.2-0.3,3.7-0.3c1.8,0,3.1,0.3,4,1c0.7,0.6,1.3,1.4,1.3,2.6
		c0,1.6-1,2.6-2,3v0.1c1,0.3,1.2,0.9,1.5,2.1c0.4,1.4,0.6,3.2,0.8,3.2H65.5z M68,74.1h3v13h-3V74.1z M70,72.1v-12h7v2h-4v3h4v2h-4v3
		h5v2H70z M75.4,74.1l1.5,5.4c0.4,1.5,0.8,2.6,1.1,4.6H78c0.3-2,0.7-3.1,1.1-4.5l1.6-5.5h3l-4.1,13h-3.2l-3.9-13H75.4z M83.4,67.6
		c-0.4-1.4-0.8-3.5-1.1-4.5h0c-0.1,1-0.1,3.2-0.2,4.7l-0.2,4.3h-2.6l0.8-12h3.7l1.2,4.4c0.4,1.4,0.8,2.6,1,4.6h0.1
		c0.3-2,0.8-3.3,1.2-4.7l1.3-4.3h3.6l0.7,12h-2.7l-0.2-4.3c-0.1-1.5-0.1-3.7-0.1-4.7h-0.1c-0.4,1-0.9,3-1.4,4.5l-1.5,4.5h-2.2
		L83.4,67.6z M74.9,124.6c-22.2,0-41.2-12.5-49.3-32.5h98.5C116,111.1,97,124.6,74.9,124.6z"/>
	<path class="st0" d="M40.8,78.5c-0.2-0.7-0.4-1.4-0.6-2.4h0c-0.2,1-0.4,1.7-0.6,2.4l-0.7,2.6h2.7L40.8,78.5z"/>
</g>
</svg>
