<?xml version="1.0" encoding="utf-8"?>
<!-- Generator: Adobe Illustrator 19.2.1, SVG Export Plug-In . SVG Version: 6.00 Build 0)  -->
<svg version="1.1" id="Layer_1" xmlns="http://www.w3.org/2000/svg" xmlns:xlink="http://www.w3.org/1999/xlink" x="0px" y="0px"
	 viewBox="0 0 300 147.1" style="enable-background:new 0 0 300 147.1;" xml:space="preserve">
<style type="text/css">
	.st0{fill:#FF0000;}
	.st1{fill:#FFFFFF;}
	.st2{fill:url(#SVGID_1_);}
</style>
<rect class="st0" width="300" height="147.1"/>
<polygon points="300,147.1 0,147.1 46,86 251,86 "/>
<polygon class="st1" points="166,145.1 128,145.1 133.8,125 159.8,125 "/>
<polygon class="st1" points="158.8,115.1 134,115.1 137.8,102 154.7,102 "/>
<polygon class="st1" points="153,94.7 138,94.7 140.3,87.4 150.6,87.4 "/>
<polygon class="st1" points="16,147.1 8,147.1 54,86.5 59,86.5 "/>
<polygon class="st1" points="281,147.1 289,147.1 243,86.5 238,86.5 "/>
<linearGradient id="SVGID_1_" gradientUnits="userSpaceOnUse" x1="146.5" y1="106" x2="146.5" y2="81">
	<stop  offset="8.064520e-002" style="stop-color:#FF0000;stop-opacity:0"/>
	<stop  offset="0.7599" style="stop-color:#FF0000"/>
</linearGradient>
<rect x="7" y="81" class="st2" width="279" height="25"/>
<g>
	<path class="st1" d="M35.6,77.6l5.3-0.5c0.3,1.8,1,3.1,1.9,3.9c1,0.8,2.3,1.2,3.9,1.2c1.8,0,3.1-0.4,4-1.1c0.9-0.7,1.3-1.6,1.3-2.6
		c0-0.6-0.2-1.2-0.6-1.6c-0.4-0.4-1-0.8-2-1.2c-0.6-0.2-2.1-0.6-4.4-1.2c-2.9-0.7-5-1.6-6.1-2.7c-1.7-1.5-2.5-3.3-2.5-5.4
		c0-1.4,0.4-2.7,1.2-3.8c0.8-1.2,1.9-2.1,3.4-2.7c1.5-0.6,3.2-0.9,5.3-0.9c3.4,0,5.9,0.7,7.6,2.2c1.7,1.5,2.6,3.5,2.7,5.9l-5.4,0.2
		c-0.2-1.4-0.7-2.4-1.5-3c-0.8-0.6-1.9-0.9-3.4-0.9c-1.6,0-2.8,0.3-3.7,1c-0.6,0.4-0.9,1-0.9,1.7c0,0.6,0.3,1.2,0.8,1.6
		c0.7,0.6,2.4,1.2,5,1.8c2.6,0.6,4.6,1.3,5.9,1.9c1.3,0.7,2.3,1.6,3,2.7c0.7,1.2,1.1,2.6,1.1,4.3c0,1.5-0.4,3-1.3,4.3
		c-0.9,1.3-2.1,2.3-3.6,3c-1.6,0.7-3.5,1-5.9,1c-3.4,0-6-0.8-7.8-2.4C37,82.9,36,80.6,35.6,77.6z"/>
	<path class="st1" d="M62.1,86.4V59.4h20V64H67.5v6H81v4.5H67.5v7.3h15v4.5H62.1z"/>
	<path class="st1" d="M87.1,59.4h9.9c2.2,0,3.9,0.2,5.1,0.5c1.6,0.5,2.9,1.3,4.1,2.5c1.1,1.2,2,2.6,2.6,4.4c0.6,1.7,0.9,3.8,0.9,6.4
		c0,2.2-0.3,4.1-0.8,5.7c-0.7,2-1.6,3.5-2.9,4.8c-0.9,0.9-2.2,1.6-3.8,2.1c-1.2,0.4-2.8,0.6-4.8,0.6H87.1V59.4z M92.6,64v17.8h4.1
		c1.5,0,2.6-0.1,3.3-0.3c0.9-0.2,1.6-0.6,2.2-1.1c0.6-0.5,1.1-1.4,1.4-2.6c0.4-1.2,0.6-2.8,0.6-4.9c0-2.1-0.2-3.7-0.6-4.8
		c-0.4-1.1-0.9-2-1.5-2.6c-0.7-0.6-1.5-1-2.5-1.3C98.7,64.1,97.2,64,95,64H92.6z"/>
	<path class="st1" d="M114.3,86.4V59.4h20V64h-14.5v6h13.5v4.5h-13.5v7.3h15v4.5H114.3z"/>
	<path class="st1" d="M139.4,86.4V59.4h5.3l11,18v-18h5v26.9h-5.5l-10.9-17.6v17.6H139.4z"/>
	<path class="st1" d="M172.6,86.4V64h-8v-4.6H186V64h-8v22.4H172.6z"/>
	<path class="st1" d="M211,86.4h-5.9l-2.4-6.1H192l-2.2,6.1H184l10.5-26.9h5.7L211,86.4z M201,75.7l-3.7-10l-3.6,10H201z"/>
	<path class="st1" d="M213.9,86.4V59.4h11.4c2.9,0,5,0.2,6.3,0.7c1.3,0.5,2.3,1.3,3.1,2.6c0.8,1.2,1.2,2.7,1.2,4.2
		c0,2-0.6,3.7-1.8,5c-1.2,1.3-3,2.1-5.3,2.5c1.2,0.7,2.1,1.4,2.9,2.3s1.8,2.3,3.1,4.4l3.3,5.3h-6.5l-3.9-5.9c-1.4-2.1-2.4-3.4-2.9-4
		c-0.5-0.5-1.1-0.9-1.6-1.1c-0.6-0.2-1.5-0.3-2.7-0.3h-1.1v11.2H213.9z M219.3,70.8h4c2.6,0,4.2-0.1,4.9-0.3
		c0.6-0.2,1.2-0.6,1.5-1.1c0.4-0.5,0.6-1.2,0.6-2c0-0.9-0.2-1.6-0.7-2.2c-0.5-0.6-1.2-0.9-2-1.1c-0.4-0.1-1.8-0.1-4-0.1h-4.2V70.8z"
		/>
	<path class="st1" d="M246.7,86.4V75l-9.9-15.6h6.4l6.3,10.6l6.2-10.6h6.3l-9.9,15.6v11.3H246.7z"/>
</g>
</svg>
